<?xml version="1.0" standalone="no"?><!DOCTYPE svg PUBLIC "-//W3C//DTD SVG 1.1//EN" "http://www.w3.org/Graphics/SVG/1.1/DTD/svg11.dtd"><svg t="1608513059492" class="icon" viewBox="0 0 1024 1024" version="1.1" xmlns="http://www.w3.org/2000/svg" p-id="5240" xmlns:xlink="http://www.w3.org/1999/xlink" width="200" height="200"><defs><style type="text/css"></style></defs><path d="M698.7 256h-384c-35.3 0-64-28.7-64-64v-32c0-35.3 28.7-64 64-64h384c35.3 0 64 28.7 64 64v32c0 35.3-28.7 64-64 64z" fill="#FCDC3F" p-id="5241"></path><path d="M698.7 160v704h-384v-704h384m0-64h-384c-35.3 0-64 28.7-64 64v704c0 35.3 28.7 64 64 64h384c35.3 0 64-28.7 64-64v-704c0-35.3-28.7-64-64-64z" fill="#515151" p-id="5242" data-spm-anchor-id="a313x.7781069.0.i7" class="selected"></path><path d="M858.7 928h-704c-17.7 0-32-14.3-32-32s14.3-32 32-32h704c17.7 0 32 14.3 32 32s-14.4 32-32 32zM250.7 192h512v64h-512v-64zM346.7 512v-64c0-17.7 14.3-32 32-32s32 14.3 32 32v64c0 17.7-14.3 32-32 32s-32-14.3-32-32z" fill="#515151" p-id="5243" data-spm-anchor-id="a313x.7781069.0.i8" class="selected"></path></svg>